<svg xmlns="http://www.w3.org/2000/svg" width="480" height="480" viewBox="0 0 480 480">
  <defs>
    <style>
      .cls-1 {
        fill: #00479d;
      }

      .cls-2 {
        fill: #fbedff;
        fill-rule: evenodd;
      }
    </style>
  </defs>
  <ellipse id="楕円形_2" data-name="楕円形 2" class="cls-1" cx="235.5" cy="240" rx="205.5" ry="219"/>
  <path id="B.G_のコピー" data-name="B.G のコピー" class="cls-2" d="M178.817,227.94a35.557,35.557,0,0,0,7.569-22.278,38.18,38.18,0,0,0-9.644-25.7Q167.1,168.8,148.788,164.4q-12.086-2.929-32.1-2.929H45.15v4.516h6.226q9.4,0,14.16,5.371,3.539,4.029,3.54,19.41V297.7q0,13.916-2.808,18.189-4.518,6.591-14.893,6.591H45.15V327h78.125q27.952,0,41.565-5.188a44.657,44.657,0,0,0,21.424-16.479q7.81-11.291,7.812-23.621a36.41,36.41,0,0,0-11.841-27.466q-8.546-8.056-25.756-11.719Q171.247,237.768,178.817,227.94Zm-86.3-55.6a82.955,82.955,0,0,1,21.972-2.686q22.705,0,34.546,10.254t11.841,24.781a33.071,33.071,0,0,1-4.761,17.334A28.712,28.712,0,0,1,142.379,233.8q-8.971,3.846-26.794,3.846-6.959,0-12.756-.428a92.241,92.241,0,0,1-10.315-1.281v-63.6Zm0,74.829a66.287,66.287,0,0,1,8.667-.854q5.37-.245,12.939-0.245,17.456,0,29.3,5.127t17.09,14.038a36.075,36.075,0,0,1,5.249,18.555q0,14.649-11.6,24.6t-33.691,9.949a123.02,123.02,0,0,1-27.954-3.3V247.166Zm136.9,60.059a13.573,13.573,0,1,0,23.132,9.643,13.165,13.165,0,0,0-3.906-9.582A13.008,13.008,0,0,0,239,303.318,13.156,13.156,0,0,0,229.416,307.225ZM419.174,157.688q-0.366,6.227-2.014,8.362a4.884,4.884,0,0,1-3.968,2.137q-2.319,0-9.155-2.564-13.549-5-20.935-6.47a84.7,84.7,0,0,0-16.418-1.465q-24.783,0-42.969,10.621-21.729,12.818-34.18,36.621a88.967,88.967,0,0,0-10.5,41.87q0,30.152,18.677,53.222,24.9,30.762,72.876,30.762a121.275,121.275,0,0,0,30.4-3.54,123.919,123.919,0,0,0,27.71-11.108V265.477q0-13.3,2.442-17.823,3.538-6.345,13.061-6.347h3.052v-4.639H383.163v4.639q10.008,0,13.977,2.014A12.789,12.789,0,0,1,403,249.18q1.89,3.846,1.892,16.3v47.851a70.556,70.556,0,0,1-16.48,6.836,67.241,67.241,0,0,1-17.7,2.319q-15.627,0-30.457-9.094t-23.986-28.625q-9.156-19.53-9.156-43.213,0-29.173,13.794-50.293,16.481-25.023,48.1-25.025,23.192,0,37.964,14.283,10.254,9.887,16.723,29.419h4.273l-4.273-52.247h-4.516Z"/>
</svg>
